<svg width="38" height="25" viewBox="0 0 38 25" fill="none" xmlns="http://www.w3.org/2000/svg">
<g clip-path="url(#clip0_822_24)">
<path d="M11.4524 21.1705C12.1959 20.8103 12.817 20.2924 13.3192 19.6282C13.9455 18.8 14.2512 17.8535 14.2921 16.8215C14.3066 16.4586 14.2616 16.0897 14.2087 15.7287C14.1041 15.0165 13.7958 14.3909 13.3308 13.8515C12.9655 13.4277 12.5262 13.0917 12.0258 12.8456C11.7782 12.7239 11.522 12.6199 11.2852 12.5148C11.5481 12.474 11.8281 12.4358 12.1062 12.3859C12.7756 12.2657 13.4183 12.0559 14.0318 11.7607C14.7397 11.4197 15.3871 10.9854 15.905 10.3828C16.1422 10.1065 16.3533 9.80222 16.5421 9.4896C16.7722 9.10855 16.9029 8.68179 16.9736 8.24102C17.0339 7.86454 17.0645 7.48312 17.0049 7.10435C16.9356 6.66432 16.7931 6.24852 16.5782 5.8554C16.2844 5.31787 15.8823 4.87444 15.4128 4.50324C14.8152 4.03074 14.1383 3.70488 13.4108 3.47657C12.5575 3.20932 11.6821 3.11633 10.7982 3.08833C10.4043 3.07587 10.0081 3.11935 9.61345 3.14204C9.34317 3.15753 9.07063 3.16358 8.80402 3.20515C8.33489 3.27812 7.86837 3.3696 7.40258 3.46296C6.4904 3.64593 5.6199 3.96003 4.78067 4.36111C3.96304 4.75235 3.19157 5.22448 2.51953 5.84216C2.13939 6.19105 1.76595 6.55395 1.43457 6.94935C0.997464 7.47065 0.651198 8.05731 0.402113 8.69954C0.236055 9.12747 0.108347 9.56407 0.0565936 10.0222C0.0413282 10.1575 0.0189886 10.2917 0 10.4267V11.0119C0.0197333 11.1661 0.0312755 11.3222 0.0606893 11.4745C0.220789 12.3103 0.585297 13.0244 1.25623 13.5627C1.68068 13.9033 2.15168 14.1509 2.67181 14.2824C3.06313 14.3815 3.46748 14.4302 3.86737 14.4915C4.08889 14.5255 4.10528 14.5092 4.20207 14.307C4.3175 14.0662 4.42733 13.8227 4.54425 13.5827C4.78067 13.0973 5.02007 12.6139 5.25725 12.1289C5.27847 12.0858 5.29152 12.0385 5.30863 11.9924C5.16192 11.9761 5.03348 11.969 4.90762 11.947C4.58818 11.8919 4.26351 11.8541 3.95261 11.766C3.45967 11.6265 3.03334 11.366 2.7392 10.9234C2.35943 10.3522 2.33225 9.71451 2.4339 9.06509C2.50352 8.62093 2.66362 8.20284 2.88478 7.80972C3.27648 7.11265 3.80891 6.54565 4.43776 6.06972C4.91805 5.70645 5.42704 5.38552 5.98403 5.15948C6.47997 4.95799 6.98188 4.76633 7.49308 4.61022C8.24518 4.3804 9.02296 4.2666 9.80522 4.23296C10.3473 4.20991 10.8965 4.22994 11.4353 4.29346C12.0429 4.36488 12.6256 4.55389 13.1658 4.86386C13.5549 5.08688 13.9097 5.35377 14.1678 5.72194C14.8182 6.65034 14.8793 7.64793 14.4236 8.6746C13.9831 9.66611 13.2109 10.3401 12.2957 10.8588C11.6341 11.2334 10.9237 11.4787 10.1801 11.6231C10.0022 11.6575 9.82011 11.6711 9.61123 11.6979C10.4974 9.67216 11.4427 7.7171 12.4696 5.7866C12.426 5.7813 12.4026 5.77259 12.3813 5.77676C11.7815 5.89318 11.1813 6.00886 10.5823 6.12981C10.4676 6.15287 10.3622 6.1767 10.2859 6.30673C9.74752 7.22531 9.1812 8.12762 8.6536 9.05262C8.1748 9.89179 7.71981 10.7457 7.27898 11.6065C6.90925 12.3277 6.57081 13.0656 6.2268 13.8004C5.97248 14.3436 5.72192 14.8891 5.48735 15.4414C5.12657 16.2904 4.76356 17.1387 4.43366 18.0002C3.96638 19.2204 3.51363 20.4466 3.08323 21.6808C2.77495 22.5646 2.51246 23.4647 2.23284 24.3587C2.17103 24.556 2.1245 24.7582 2.06455 24.9824C2.11221 24.9601 2.1338 24.9525 2.15316 24.9412C2.45922 24.7635 2.76601 24.5866 3.07095 24.4071C3.8439 23.9516 4.61758 23.4972 5.38645 23.0349C5.4758 22.9812 5.60351 22.9676 5.6385 22.8323C5.72602 22.4962 5.81759 22.1617 5.91107 21.8275C5.97585 21.5954 6.04696 21.3656 6.11621 21.1305C6.18768 21.1569 6.24094 21.1747 6.29268 21.1966C7.12445 21.5501 7.99423 21.7273 8.89227 21.7451C9.21248 21.7512 9.53454 21.6982 9.85474 21.6623C10.4166 21.5992 10.946 21.4181 11.4524 21.1724V21.1705ZM8.44287 20.0195C8.26491 20.0475 8.08059 20.0607 7.90151 20.0482C7.43611 20.0165 6.96957 19.9809 6.51609 19.8331C7.26521 17.5069 8.1182 15.2244 9.071 12.9537C9.36326 13.0376 9.65294 13.1132 9.9374 13.2047C10.3745 13.3449 10.755 13.5838 11.1002 13.8904C11.5056 14.2506 11.7823 14.6895 11.9398 15.2093C12.0812 15.6754 12.0973 16.146 12.0295 16.6302C11.9614 17.1156 11.8165 17.5681 11.5905 17.9971C11.3645 18.4258 11.0644 18.7898 10.6977 19.1062C10.3175 19.434 9.89496 19.6812 9.42394 19.8275C9.10711 19.9257 8.77201 19.9681 8.44287 20.0199V20.0195ZM37.9304 0.908728C37.8608 0.499343 37.6306 0.17274 37.2087 0.0510207C36.9445 -0.0253376 36.6727 -0.0102171 36.4058 0.0582031C35.8729 0.195043 35.4291 0.49783 35.04 0.871685C34.6949 1.20358 34.3727 1.56458 34.072 1.93919C33.5887 2.5406 33.1807 3.19722 32.836 3.88972C32.5703 4.42272 32.3027 4.95914 32.0954 5.5167C31.8133 6.27309 31.564 7.04423 31.3454 7.82219C31.1436 8.53889 31.0144 9.27528 30.9639 10.0222C30.932 10.4894 30.8834 10.957 30.8882 11.4239C30.8901 11.6174 30.7913 11.6949 30.6873 11.7973C30.6709 11.8136 30.6459 11.8204 30.6283 11.8359C30.1212 12.2782 29.5784 12.6672 28.961 12.9337C28.5128 13.1272 28.0529 13.2629 27.5503 13.2107C27.0823 13.1623 26.7513 12.9548 26.5841 12.494C26.8235 12.1905 27.0804 11.8941 27.3049 11.5747C27.9115 10.711 28.5154 9.84494 29.0996 8.96568C29.7295 8.01762 30.2887 7.02534 30.7581 5.98506C30.9867 5.47815 31.1992 4.96176 31.3886 4.43861C31.6005 3.85268 31.7446 3.24673 31.74 2.61621C31.7385 2.41019 31.7203 2.20115 31.6789 2.00005C31.6273 1.74716 31.5415 1.49994 31.3606 1.30677C31.0296 0.953333 30.6082 0.909108 30.1685 0.988867C29.8409 1.04822 29.5434 1.20131 29.2712 1.39448C28.9041 1.6553 28.5637 1.94788 28.2834 2.30662C28.0336 2.62566 27.7662 2.93223 27.5361 3.26525C26.9698 4.08515 26.4832 4.95346 26.0923 5.87355C25.8302 6.49046 25.5781 7.11228 25.3435 7.74052C25.0337 8.57102 24.8118 9.4291 24.6584 10.3027C24.5914 10.6849 24.5661 11.0753 24.5385 11.4632C24.5214 11.7066 24.5281 11.9531 24.5374 12.1973C24.5449 12.389 24.5758 12.5791 24.5896 12.7707C24.5952 12.8475 24.6067 12.942 24.5709 12.9998C24.5039 13.1087 24.412 13.2058 24.317 13.2924C24.0098 13.5729 23.7064 13.8598 23.3821 14.1187C23.1512 14.3032 22.9011 14.4684 22.6036 14.5391C22.3318 14.6037 22.118 14.5062 22.0618 14.2265C22.0246 14.0405 22.025 13.8273 22.0767 13.6462C22.2904 12.9011 22.5097 12.1569 22.7663 11.4261C23.0027 10.7533 23.2879 10.0982 23.5545 9.43667C23.6528 9.19287 23.7596 8.95244 23.8673 8.69994C23.8248 8.69994 23.7999 8.6954 23.7771 8.70068C23.0995 8.85605 22.4215 9.01102 21.745 9.17244C21.694 9.18454 21.6426 9.23784 21.6124 9.28546C21.5752 9.34444 21.5588 9.41701 21.5361 9.48429C21.4482 9.74438 21.3619 10.0048 21.2691 10.2819C21.2416 10.2305 21.2222 10.198 21.2062 10.1636C20.9616 9.64268 20.5338 9.41627 19.9865 9.40417C19.536 9.39432 19.1085 9.51417 18.7061 9.71414C18.0504 10.0404 17.5213 10.5302 17.063 11.0954C16.6184 11.6431 16.2599 12.2487 15.9739 12.8989C15.6478 13.6409 15.4076 14.4109 15.3466 15.2199C15.2974 15.8678 15.3034 16.5255 15.5763 17.1383C15.7472 17.522 16.0097 17.824 16.4103 17.976C16.9963 18.1986 17.5671 18.1026 18.1144 17.8505C18.7507 17.5575 19.2396 17.0748 19.6596 16.5183C19.8122 16.3161 19.95 16.1029 20.0855 15.9079C20.1797 16.0613 20.2523 16.2273 20.3659 16.355C20.6507 16.6752 21.0476 16.7138 21.4348 16.7077C21.755 16.7028 22.0607 16.5841 22.3478 16.4348C23.0734 16.0568 23.6945 15.5325 24.2943 14.9814C24.5627 14.7349 24.8126 14.4676 25.0762 14.2042C25.2404 14.4888 25.4835 14.6975 25.7713 14.8388C26.4017 15.1492 27.0637 15.1692 27.735 15.0033C28.2361 14.8793 28.7045 14.6725 29.155 14.417C29.7251 14.0934 30.2612 13.7222 30.7663 13.3034C30.9028 13.1907 31.0424 13.0819 31.1904 12.9635C31.5598 13.7694 32.1361 14.3107 32.9813 14.5576C24.4566 16.1551 16.7182 19.5421 9.69651 24.632C9.69985 24.646 9.70356 24.66 9.70693 24.6743H14.1834C14.7214 24.6743 15.2598 24.6755 15.7978 24.6724C15.8447 24.6724 15.9099 24.6592 15.9356 24.6271C16.3075 24.1565 16.6936 23.6994 17.1404 23.2987C17.5213 22.9574 17.8992 22.6123 18.289 22.2815C18.9079 21.7557 19.5758 21.2994 20.2572 20.8609C21.3012 20.1888 22.3794 19.581 23.5031 19.0571C24.1532 18.7539 24.7995 18.439 25.463 18.168C26.4087 17.7817 27.363 17.4154 28.3236 17.0699C29.0806 16.7977 29.8502 16.5603 30.6195 16.3248C31.195 16.1486 31.7756 15.988 32.3593 15.8417C33.1761 15.6372 33.9963 15.4456 34.8177 15.2615C35.2637 15.1617 35.7154 15.0895 36.176 15.0029C36.2854 14.6211 36.3976 14.2291 36.5119 13.8299C36.211 13.8919 35.8018 13.9104 35.2482 13.8375L35.2512 13.8356C35.1971 13.8299 35.1436 13.8235 35.0898 13.8152C34.4529 13.7188 33.8936 13.4595 33.4604 12.9488C33.1077 12.533 32.9457 12.0442 32.87 11.5169C32.8594 11.4416 32.8661 11.3407 32.9077 11.2848C33.0366 11.1124 33.1877 10.9574 33.3272 10.793C33.6121 10.4573 33.906 10.1288 34.1754 9.78105C34.525 9.32969 34.8694 8.87269 35.1889 8.39904C35.8598 7.40448 36.4843 6.38083 36.9898 5.28648C37.288 4.6412 37.5689 3.98954 37.7434 3.29852C37.8474 2.888 37.9505 2.47067 37.9866 2.05032C38.0189 1.67345 37.9948 1.28258 37.931 0.909108L37.9304 0.908728ZM20.2538 13.2504C20.0632 13.8057 19.8063 14.3346 19.4597 14.8112C19.1763 15.2006 18.8617 15.5495 18.3803 15.6981C17.9312 15.8368 17.6751 15.6206 17.6151 15.2119C17.5984 15.0981 17.5876 14.9832 17.5772 14.8952C17.6058 14.3705 17.7302 13.898 17.9007 13.4345C18.1331 12.8036 18.4253 12.2102 18.8576 11.6915C19.107 11.3921 19.3867 11.1445 19.765 11.036C20.2125 10.9079 20.4623 11.1192 20.5278 11.5706C20.6138 12.1614 20.4392 12.711 20.2538 13.2508V13.2504ZM26.6489 9.85664C26.8283 9.1766 26.9978 8.49164 27.2212 7.82596C27.4479 7.15046 27.7227 6.49083 27.9978 5.83346C28.1892 5.37608 28.4052 4.92852 28.6311 4.48738C28.9394 3.88559 29.2771 3.29929 29.686 2.76023C29.7861 2.62831 29.9146 2.51793 30.0344 2.40301C30.1201 2.32098 30.2437 2.2382 30.3379 2.30851C30.4228 2.37164 30.4985 2.51755 30.4927 2.62226C30.4748 2.95075 30.4429 3.2834 30.3692 3.60321C30.2243 4.23182 29.9697 4.82191 29.7034 5.40744C29.2701 6.35966 28.7663 7.27179 28.2026 8.1488C27.6914 8.94414 27.1541 9.72244 26.6273 10.5076C26.6038 10.5427 26.5703 10.5707 26.5111 10.635C26.5595 10.3526 26.5845 10.0993 26.6485 9.85664H26.6489ZM36.7427 2.26088C36.5904 3.01803 36.3016 3.72642 35.9827 4.425C35.5364 5.4033 35.0244 6.34417 34.4332 7.23855C34.0006 7.89287 33.5455 8.5321 33.0998 9.17775C33.0901 9.1921 33.0719 9.2004 33.0579 9.21176C33.0469 9.20645 33.0363 9.20117 33.025 9.19549C33.0785 8.92975 33.1153 8.65873 33.1895 8.39864C33.419 7.59386 33.6431 6.78642 33.9066 5.99262C34.0951 5.42444 34.3271 4.86917 34.5697 4.32216C34.8132 3.77367 35.0801 3.23426 35.3631 2.7058C35.6069 2.25067 35.8842 1.81256 36.2684 1.45911C36.3204 1.41111 36.3769 1.36499 36.4377 1.32946C36.5925 1.23835 36.7408 1.30564 36.7858 1.47802C36.8554 1.74414 36.794 2.00421 36.7427 2.26088Z" fill="white"/>
</g>
<defs>
<clipPath id="clip0_822_24">
<rect width="38" height="25" fill="white"/>
</clipPath>
</defs>
</svg>
